<svg width="32" height="32" viewBox="0 0 32 32" fill="none" xmlns="http://www.w3.org/2000/svg">
<path d="M4 5C4 4.44772 4.44772 4 5 4H17C17.5523 4 18 4.44772 18 5V25C18 25.5523 17.5523 26 17 26H5C4.44772 26 4 25.5523 4 25V5Z" fill="#F3F3F3"/>
<path fill-rule="evenodd" clip-rule="evenodd" d="M5 2H17C18.6569 2 20 3.34314 20 5V25C20 26.6569 18.6569 28 17 28H5C3.34315 28 2 26.6569 2 25V5C2 3.34315 3.34315 2 5 2ZM5 4C4.44772 4 4 4.44772 4 5V25C4 25.5523 4.44772 26 5 26H17C17.5523 26 18 25.5523 18 25V5C18 4.44772 17.5523 4 17 4H5Z" fill="#333333"/>
<path fill-rule="evenodd" clip-rule="evenodd" d="M6 13C6 12.4477 6.44772 12 7 12H12C12.5523 12 13 12.4477 13 13C13 13.5523 12.5523 14 12 14H7C6.44772 14 6 13.5523 6 13Z" fill="#333333"/>
<path d="M16 13C16 13.5523 15.5523 14 15 14C14.4477 14 14 13.5523 14 13C14 12.4477 14.4477 12 15 12C15.5523 12 16 12.4477 16 13Z" fill="#333333"/>
<path fill-rule="evenodd" clip-rule="evenodd" d="M6 17C6 16.4477 6.44772 16 7 16H12C12.5523 16 13 16.4477 13 17C13 17.5523 12.5523 18 12 18H7C6.44772 18 6 17.5523 6 17Z" fill="#333333"/>
<path d="M16 17C16 17.5523 15.5523 18 15 18C14.4477 18 14 17.5523 14 17C14 16.4477 14.4477 16 15 16C15.5523 16 16 16.4477 16 17Z" fill="#333333"/>
<path fill-rule="evenodd" clip-rule="evenodd" d="M6 9C6 8.44772 6.44772 8 7 8H12C12.5523 8 13 8.44772 13 9C13 9.55228 12.5523 10 12 10H7C6.44772 10 6 9.55228 6 9Z" fill="#333333"/>
<path d="M16 9C16 9.55228 15.5523 10 15 10C14.4477 10 14 9.55228 14 9C14 8.44772 14.4477 8 15 8C15.5523 8 16 8.44772 16 9Z" fill="#333333"/>
<path d="M21.567 16.75C21.7595 16.4167 22.2406 16.4167 22.4331 16.75L28.4952 27.25C28.6877 27.5833 28.4471 28 28.0622 28H15.9379C15.553 28 15.3124 27.5833 15.5049 27.25L21.567 16.75Z" fill="url(#paint0_linear_298_28)"/>
<path fill-rule="evenodd" clip-rule="evenodd" d="M15.5048 27.25C15.3123 27.5833 15.5529 28 15.9378 28H28.0622C28.4471 28 28.6876 27.5833 28.4952 27.25L22.433 16.75C22.2406 16.4167 21.7594 16.4167 21.567 16.75L15.5048 27.25ZM24.1651 15.75L30.2272 26.25C31.1895 27.9167 29.9867 30 28.0622 30H15.9378C14.0133 30 12.8105 27.9167 13.7727 26.25L19.8349 15.75C20.7972 14.0833 23.2028 14.0833 24.1651 15.75Z" fill="#333333"/>
<defs>
<linearGradient id="paint0_linear_298_28" x1="14.0001" y1="16" x2="30.0001" y2="32" gradientUnits="userSpaceOnUse">
<stop stop-color="#C8C8C8"/>
<stop offset="1" stop-color="#AFAFAF"/>
</linearGradient>
</defs>
</svg>
